<svg xmlns="http://www.w3.org/2000/svg" xmlns:xlink="http://www.w3.org/1999/xlink" xml:space="preserve" version="1.1" style="shape-rendering:geometricPrecision;text-rendering:geometricPrecision;image-rendering:optimizeQuality;" viewBox="0 0 866 1071.25" x="0px" y="0px" fill-rule="evenodd" clip-rule="evenodd"><defs><style type="text/css">
   
    .fil0 {fill:none}
    .fil1 {fill:black}
   
  </style></defs><g><rect class="fil0" width="866" height="857"/><path class="fil1" d="M850 63c21,15 -141,715 -152,722 -6,4 -64,-32 -197,-131 -51,-38 -32,-37 -155,84 -24,23 -24,23 -39,-19 -16,-42 -48,-126 -64,-168 -16,-42 -16,-42 -55,-62 -118,-60 -180,-88 -180,-98 0,-24 818,-345 842,-328zm-533 546c-10,-23 -30,-82 -39,-111 -10,-30 -10,-30 63,-79 452,-303 455,-330 62,47 -77,74 -59,48 -70,133 -2,13 -4,23 -7,22 -2,0 -5,-4 -9,-12z"/></g><text x="0" y="872" fill="#000000" font-size="5px" font-weight="bold" font-family="'Helvetica Neue', Helvetica, Arial-Unicode, Arial, Sans-serif">Created by ANTON icon</text><text x="0" y="877" fill="#000000" font-size="5px" font-weight="bold" font-family="'Helvetica Neue', Helvetica, Arial-Unicode, Arial, Sans-serif">from the Noun Project</text></svg>